M48
; DRILL file {KiCad (5.1.4-0-10_14)} date Monday, 16 September 2019 at 14:14:34
; FORMAT={3:3/ absolute / metric / suppress leading zeros}
; #@! TF.CreationDate,2019-09-16T14:14:34+02:00
; #@! TF.GenerationSoftware,Kicad,Pcbnew,(5.1.4-0-10_14)
FMAT,2
METRIC,TZ
T1C0.600
T2C0.800
T3C0.900
T4C1.000
T5C1.100
T6C1.200
T7C1.270
T8C1.300
T9C2.000
T10C3.200
T11C3.500
T12C4.300
%
G90
G05
T1
X189865Y110490
X192405Y114300
X192405Y123190
X192405Y125730
X196850Y54610
X200025Y52070
X146050Y69850
X147320Y68580
X148590Y69850
X142240Y97790
X143510Y96520
X144780Y97790
X145542Y60706
X146812Y61976
X148082Y60706
T2
X118110Y75184
X128270Y75184
X124460Y57150
X137160Y57150
X179070Y109220
X179070Y111760
X179070Y114300
X186690Y111760
X186690Y114300
X186690Y116840
X139065Y91059
X149225Y91059
X179070Y116840
X186690Y109220
X124460Y48260
X87757Y125476
X97917Y125476
X114300Y48260
X140081Y60833
X140081Y70993
X87757Y121920
X97917Y121920
X139065Y80645
X146685Y80645
X100330Y121920
X107950Y121920
X134620Y102235
X144780Y102235
X114300Y52070
X119300Y52070
X118110Y78740
X128270Y78740
X198755Y71120
X198755Y76120
X100330Y125095
X107950Y125095
X87630Y118110
X97790Y118110
X87630Y111125
X97790Y111125
X207645Y50800
X207645Y53340
X207645Y55880
X156210Y58420
X156210Y68580
X100330Y118237
X215265Y55880
X207645Y58420
X207645Y60960
X207645Y63500
X207645Y66040
X207645Y68580
X207645Y71120
X207645Y73660
X207645Y76200
X207645Y78740
X207645Y81280
X207645Y83820
X215265Y50800
X207899Y118110
X215265Y53340
X215265Y58420
X215519Y115570
X107950Y118237
X207899Y107950
X207899Y110490
X207899Y113030
X207899Y115570
X207899Y120650
X207899Y123190
X207899Y125730
X207899Y128270
X215519Y107950
X215519Y110490
X215519Y113030
X215519Y118110
X100330Y108585
X215265Y60960
X215265Y63500
X215519Y123190
X140335Y111760
X140335Y121920
X215265Y66040
X215519Y125730
X215265Y68580
X107950Y108585
X215265Y71120
X215265Y73660
X215265Y81280
X215519Y128270
X215265Y76200
X215519Y120650
X215265Y78740
X215265Y83820
X196850Y112395
X196850Y117395
X152400Y58420
X152400Y68580
X139700Y54610
X149860Y54610
X87757Y58420
X87757Y71120
X147955Y102235
X158115Y102235
X115570Y111760
X115570Y119380
X118110Y111760
X143002Y49784
X118110Y119380
X120650Y111760
X120650Y119380
X123190Y111760
X123190Y119380
X125730Y111760
X125730Y119380
X128270Y111760
X128270Y119380
X130810Y111760
X130810Y119380
X118110Y57150
X110490Y62230
X110490Y64770
X118110Y59690
X100330Y115316
X110490Y57150
X110490Y59690
X118110Y62230
X118110Y64770
X139065Y77470
X149225Y77470
X107950Y115316
X87630Y114554
X97790Y114554
X179070Y120650
X179070Y123190
X179070Y125730
X179070Y128270
X186690Y120650
X186690Y123190
X87630Y107823
X97790Y107823
X186690Y125730
X149225Y83820
X148002Y49784
X100330Y111887
X107950Y111887
X139065Y83820
X186690Y128270
X134112Y62230
X134112Y82230
X135255Y111760
X135255Y121920
X149225Y87630
X129540Y49530
X134540Y49530
X139065Y87630
T3
X153670Y87630
X156210Y87630
X153670Y77470
X156210Y77470
X153670Y97155
X156210Y97155
T4
X175260Y50800
X175260Y53340
X175260Y55880
X175260Y58420
X175260Y60960
X175260Y63500
X175260Y66040
X175260Y68580
X175260Y71120
X175260Y73660
X175260Y76200
X175260Y78740
X175260Y81280
X175260Y83820
X175260Y86360
X175260Y88900
X175260Y91440
X175260Y93980
X175260Y96520
X175260Y99060
X190500Y50800
X190500Y53340
X190500Y55880
X190500Y58420
X190500Y60960
X190500Y63500
X190500Y66040
X190500Y68580
X190500Y71120
X190500Y73660
X190500Y76200
X190500Y78740
X190500Y81280
X190500Y83820
X190500Y86360
X190500Y88900
X190500Y91440
X190500Y93980
X190500Y96520
X190500Y99060
X79760Y110505
X79760Y113275
X79760Y116045
X79760Y118815
X82600Y109120
X82600Y111890
X82600Y114660
X82600Y117430
X82600Y120200
T5
X96520Y71120
X99060Y71120
X101600Y71120
T6
X85490Y78867
X110490Y78867
X84582Y90170
X109582Y90170
T7
X117475Y88265
X127635Y85725
X127635Y90805
T8
X125730Y62230
X125730Y67230
X78700Y62300
X78700Y67300
T9
X168910Y96520
X196850Y48260
T10
X81180Y102160
X81180Y127160
T11
X99060Y54460
T12
X158750Y44450
X229870Y135890
X229870Y44450
X158750Y135890
X77470Y44450
X77470Y135890
T0
M30
